<svg version="1.1" id="Layer_1" xmlns="http://www.w3.org/2000/svg" xmlns:xlink="http://www.w3.org/1999/xlink" x="0px" y="0px"
	 width="100%" viewBox="0 0 1024 528" enable-background="new 0 0 1024 528" xml:space="preserve">
<path fill="#000000" opacity="1.000000" stroke="none" 
	d="
M836.019653,129.684189 
	C849.464233,128.786179 862.442261,128.468552 875.416870,129.698044 
	C877.093384,129.856903 879.596191,129.138565 879.456299,132.003784 
	C879.347290,134.236526 877.194153,134.166733 875.572388,134.168579 
	C821.985352,134.229446 772.990662,151.951462 724.947021,173.316681 
	C717.705688,176.536942 710.284851,179.420349 703.703064,183.390259 
	C703.671204,185.738480 705.051270,186.613922 706.028259,187.674576 
	C714.962646,197.374130 723.068970,207.740311 730.757629,218.435638 
	C731.806396,219.894592 734.138367,221.526428 732.029297,223.578217 
	C729.909058,225.640900 728.403320,223.234360 726.947693,222.149841 
	C714.656250,212.991760 702.382690,203.808731 690.184570,194.527008 
	C687.107117,192.185410 684.523193,191.781097 680.725342,193.585876 
	C647.775696,209.244141 614.745056,224.733658 579.939941,236.011612 
	C553.030029,244.731262 525.607239,250.798279 497.221436,250.925415 
	C469.697174,251.048691 443.426544,244.917572 418.410553,233.346405 
	C397.522034,223.684433 378.599152,211.065567 361.468597,195.771103 
	C358.704376,193.303192 356.487457,193.489273 353.427338,194.743958 
	C321.806549,207.709076 289.691681,219.190109 256.295563,226.797104 
	C228.701462,233.082520 200.792023,235.673553 172.518372,234.229263 
	C172.019089,234.203766 171.514862,234.211945 171.021591,234.142776 
	C169.548492,233.936249 167.763977,233.942703 167.742432,231.877487 
	C167.719696,229.696808 169.560699,229.828690 171.019073,229.764679 
	C177.165009,229.494980 183.301239,229.394394 189.458435,228.940002 
	C222.153824,226.527222 253.303375,217.884613 283.793823,206.398605 
	C302.822998,199.230164 321.319489,190.803009 339.849670,182.460983 
	C341.200409,181.852921 342.466675,181.057190 343.743561,180.364273 
	C343.800873,178.043701 342.070648,177.000092 340.880463,175.743149 
	C331.919861,166.279892 324.024231,155.960571 316.422302,145.410629 
	C315.371063,143.951721 312.849945,142.407684 314.676758,140.312454 
	C316.763763,137.918823 318.593079,140.301041 320.210938,141.515320 
	C331.804199,150.216888 343.510101,158.780655 354.841370,167.813232 
	C359.521088,171.543610 363.304596,171.737915 368.727539,169.118423 
	C401.128632,153.467590 433.779877,138.356613 468.145050,127.348389 
	C494.904846,118.776413 522.141663,112.818352 550.381226,112.793213 
	C584.854553,112.762512 616.701904,122.451675 646.445435,139.521805 
	C660.512512,147.595032 673.596252,157.069504 685.606567,167.959076 
	C688.147095,170.262497 690.180054,170.264740 693.148132,169.071381 
	C720.659119,158.010315 748.385376,147.578400 777.168274,140.177200 
	C796.382690,135.236420 815.806396,131.603470 836.019653,129.684189 
M535.869446,141.510574 
	C480.737213,142.815872 430.948151,163.397385 380.277557,183.928329 
	C381.478088,184.848114 381.845245,185.194107 382.269135,185.443802 
	C385.426453,187.303680 388.575958,189.178040 391.762848,190.986237 
	C443.497498,220.339676 498.590668,228.634140 556.732849,216.896164 
	C593.821594,209.408539 628.724609,195.257812 663.559509,180.983307 
	C664.424194,180.628952 665.544495,180.448730 665.666748,179.179047 
	C639.363525,157.850159 581.640198,140.960617 535.869446,141.510574 
z"/>
<path fill="#000000" opacity="1.000000" stroke="none" 
	d="
M713.013000,424.219635 
	C699.663574,424.209625 699.666626,424.209625 699.667542,411.164673 
	C699.669373,384.191406 699.767700,357.217407 699.573669,330.245544 
	C699.539307,325.471344 700.976501,323.804535 705.799622,323.933563 
	C724.596680,324.436310 743.440002,322.981781 762.201782,324.629730 
	C787.706787,326.869873 800.464539,340.150360 802.153381,365.764954 
	C802.723633,374.412292 802.388855,383.054779 800.328857,391.564087 
	C795.838257,410.113373 782.925537,421.368011 763.905029,423.358887 
	C747.126709,425.115112 730.305969,423.796021 713.013000,424.219635 
M782.638916,360.914978 
	C779.236206,347.837158 772.699585,341.316620 761.370178,340.351318 
	C748.445679,339.250092 735.470276,339.498688 722.509705,339.400665 
	C719.251465,339.376068 718.183533,340.673370 718.199097,343.862885 
	C718.297424,363.998077 718.296753,384.134155 718.215332,404.269440 
	C718.202576,407.427307 719.218018,408.753693 722.521912,408.714447 
	C733.836121,408.580017 745.162598,408.946655 756.465881,408.567352 
	C769.680786,408.123932 778.188477,401.212067 781.776123,388.438049 
	C784.239746,379.666077 784.348328,370.720947 782.638916,360.914978 
z"/>
<path fill="#000000" opacity="1.000000" stroke="none" 
	d="
M69.791397,406.859131 
	C81.642250,380.558655 93.417030,354.636749 104.987335,328.623871 
	C106.662567,324.857605 109.032974,324.119141 112.907494,323.498413 
	C125.801064,321.432709 132.108170,326.575592 136.984253,338.759766 
	C147.736969,365.628204 160.411606,391.727356 172.289352,418.146088 
	C172.959686,419.637054 173.515976,421.179291 174.530701,423.707642 
	C167.725067,424.477600 161.553894,424.523163 155.379654,423.774017 
	C153.989746,423.605377 153.528915,421.977631 152.980988,420.765930 
	C151.952179,418.490936 150.539551,416.297058 150.003159,413.908478 
	C148.100403,405.435883 142.847214,403.563110 134.683136,404.020660 
	C121.565567,404.755920 108.375656,404.329956 95.219368,404.159119 
	C91.700745,404.113464 89.516647,405.160492 88.462921,408.578308 
	C87.926407,410.318512 87.208862,412.041656 86.311119,413.623810 
	C84.378479,417.029877 84.530098,422.521027 80.574654,423.646118 
	C75.124100,425.196472 69.157288,424.424866 62.749199,423.824738 
	C64.538277,417.520905 67.348427,412.462799 69.791397,406.859131 
M115.325394,346.840881 
	C109.212082,360.735046 103.098763,374.629211 96.961876,388.576965 
	C98.281471,389.182831 98.715828,389.555115 99.152100,389.557373 
	C111.284691,389.620209 123.417450,389.657227 135.550217,389.670349 
	C139.485535,389.674591 138.847565,387.457428 137.773560,385.005188 
	C131.908142,371.613007 126.077271,358.205688 120.173172,344.830627 
	C119.697983,343.754150 119.494942,342.171295 117.557915,342.177399 
	C116.917709,343.501373 116.270569,344.839661 115.325394,346.840881 
z"/>
<path fill="#000000" opacity="1.000000" stroke="none" 
	d="
M941.176636,373.923279 
	C948.598999,390.444580 955.874329,406.617065 963.567688,423.718781 
	C956.682678,424.522186 950.789734,424.343567 944.909058,423.961395 
	C942.975952,423.835754 942.368530,421.994934 941.688660,420.484741 
	C939.776062,416.236053 937.816895,412.004913 936.048523,407.696075 
	C935.025940,405.204681 933.446960,404.177063 930.722412,404.190765 
	C914.905640,404.269989 899.087952,404.272675 883.271362,404.176666 
	C880.379639,404.159119 878.620789,405.130341 877.551941,407.865479 
	C875.917419,412.047791 873.912903,416.085846 872.290405,420.272369 
	C871.160034,423.189331 869.278564,424.445923 866.192688,424.232635 
	C861.602112,423.915375 856.929199,424.842560 852.570618,423.620605 
	C851.392639,421.545990 852.529114,420.094940 853.184143,418.640564 
	C866.853638,388.292114 880.577576,357.968170 894.201599,327.599335 
	C895.464905,324.783264 897.157104,323.512665 900.289795,323.652130 
	C904.776367,323.851837 909.288879,323.893188 913.770447,323.644287 
	C917.291992,323.448700 919.177368,324.802307 920.593689,328.025696 
	C927.287476,343.260559 934.197021,358.400635 941.176636,373.923279 
M896.551697,389.708801 
	C906.761841,389.500427 917.001221,390.179413 928.297607,389.181610 
	C921.137268,372.846680 914.334778,357.328033 906.895264,340.356140 
	C899.371521,357.455536 892.481262,373.115234 885.499329,388.983246 
	C889.308533,390.170410 892.472839,389.494110 896.551697,389.708801 
z"/>
<path fill="#000000" opacity="1.000000" stroke="none" 
	d="
M378.912231,405.009491 
	C390.510468,379.341827 402.025848,354.051422 413.304504,328.655884 
	C414.880371,325.107574 416.860077,324.127808 420.652985,323.516327 
	C433.876343,321.384552 440.519012,326.532104 445.536102,339.162659 
	C456.150513,365.884369 468.800171,391.797333 480.594788,418.051117 
	C481.319916,419.665131 482.586365,421.195801 481.577850,423.790955 
	C476.108368,424.635651 470.349091,424.258545 464.613037,423.994080 
	C462.420166,423.892944 461.775085,421.878265 461.035706,420.232361 
	C459.194885,416.134735 457.380463,412.022827 455.676086,407.867218 
	C454.689575,405.461823 453.267853,404.175537 450.460541,404.190643 
	C434.314178,404.277588 418.166931,404.268555 402.020447,404.192719 
	C399.414276,404.180511 398.115540,405.384338 397.202576,407.628754 
	C395.447876,411.942352 393.465668,416.163788 391.726959,420.483490 
	C390.655396,423.145691 388.951233,424.345032 386.020569,424.248688 
	C381.283356,424.092957 376.537231,424.206818 370.500824,424.206818 
	C373.619354,417.082977 376.186768,411.218140 378.912231,405.009491 
M442.542603,376.877411 
	C437.318268,365.016266 432.093933,353.155090 426.421967,340.277618 
	C418.965546,357.272186 412.073303,372.980927 404.957855,389.198303 
	C419.749268,389.198303 433.380188,389.198303 447.227203,389.198303 
	C446.457855,384.657898 444.200287,381.286926 442.542603,376.877411 
z"/>
<path fill="#000000" opacity="1.000000" stroke="none" 
	d="
M639.809753,410.280640 
	C641.562317,414.752380 644.168152,418.503571 644.995483,423.653961 
	C638.833191,424.598328 632.933289,424.341705 627.042786,423.917236 
	C625.575500,423.811523 624.887207,422.483643 624.318787,421.243164 
	C623.347656,419.123993 622.387024,417.000000 621.417725,414.879974 
	C615.509949,401.958191 618.959839,404.427063 604.771851,404.246613 
	C592.112549,404.085602 579.447205,404.351685 566.789795,404.128601 
	C562.897644,404.060028 560.407104,405.076294 559.285400,408.954315 
	C558.780090,410.701172 558.045837,412.424133 557.148315,414.006409 
	C555.293274,417.276764 555.417175,422.556061 551.622498,423.619781 
	C546.155090,425.152283 540.217834,424.433380 534.218689,423.781464 
	C534.313599,419.823822 536.281067,417.207458 537.531128,414.410828 
	C550.170044,386.135193 562.991882,357.940857 575.507568,329.611084 
	C577.484070,325.137207 580.160217,324.159821 584.828369,323.451141 
	C597.390625,321.544098 603.175476,326.868744 607.764526,338.303619 
	C617.492310,362.543518 628.912598,386.104126 639.809753,410.280640 
M587.441467,344.219879 
	C580.947327,359.032959 574.453186,373.846039 567.735779,389.168396 
	C582.693665,389.168396 596.343750,389.168396 610.612061,389.168396 
	C603.408264,372.733612 596.508118,356.991516 589.298950,340.544373 
	C588.452698,342.187042 588.083008,342.904663 587.441467,344.219879 
z"/>
<path fill="#000000" opacity="1.000000" stroke="none" 
	d="
M292.901672,356.961884 
	C297.048401,347.453827 301.205261,338.357971 304.948242,329.094849 
	C306.510529,325.228455 308.828247,323.567200 312.885162,323.964020 
	C317.113220,324.377655 321.471130,323.209473 325.853271,324.842407 
	C325.947510,327.627533 324.511688,329.756470 323.523987,331.948608 
	C310.455048,360.953186 297.246765,389.895386 284.300873,418.954529 
	C282.457703,423.091736 279.966125,423.898315 275.683929,424.565186 
	C263.105865,426.523956 257.032806,421.564270 252.270157,409.770233 
	C241.239532,382.454590 228.438873,355.853912 216.377823,328.953522 
	C215.851425,327.779449 215.542603,326.507843 214.921631,324.651581 
	C221.212524,323.510559 227.120483,323.798004 232.993347,324.385437 
	C235.344696,324.620667 235.724747,327.100250 236.496216,328.876740 
	C246.845261,352.707977 257.151581,376.557800 267.486206,400.395325 
	C268.317169,402.311951 269.278198,404.172180 270.866211,407.498718 
	C278.566193,389.833984 285.655487,373.570282 292.901672,356.961884 
z"/>
</svg>